<?xml version="1.0" encoding="UTF-8"?>
<svg version="1.1" xmlns="http://www.w3.org/2000/svg" width="1024" height="222">
<path d="M0 0 C1.73271497 1.38223399 3.21758593 2.80342339 4.71875 4.43359375 C5.358125 5.12582031 5.9975 5.81804687 6.65625 6.53125 C18.46871264 20.29008432 24.71035747 37.84955914 24.02734375 55.98046875 C22.34989356 74.750924 15.14338641 91.53834118 0.71484375 104.1171875 C-6.1230991 109.78856584 -13.70327402 114.85786998 -22.28125 117.43359375 C-26.74636628 116.96847747 -26.74636628 116.96847747 -28.28125 115.43359375 C-28.40264416 113.73595468 -28.46091388 112.03371774 -28.4921875 110.33203125 C-28.52054687 109.28402344 -28.54890625 108.23601562 -28.578125 107.15625 C-28.62965769 104.94807419 -28.6740858 102.7397196 -28.7109375 100.53125 C-28.89168541 94.36322771 -29.46948635 89.92734733 -32.28125 84.43359375 C-32.65433631 83.11083319 -33.01171415 81.78127298 -33.28125 80.43359375 C-32.04375 80.39234375 -30.80625 80.35109375 -29.53125 80.30859375 C-22.33995861 79.51082767 -14.88702 76.34194016 -10.02734375 70.91796875 C-4.95257722 63.69749556 -2.84174095 54.64282797 -3.46484375 45.83984375 C-4.21274534 41.97458241 -5.25463333 39.47508444 -7.40625 36.12109375 C-9.99406742 32.04361022 -9.54957545 27.99063682 -9.32421875 23.30078125 C-9.28237092 20.50838995 -9.63176858 18.14059264 -10.28125 15.43359375 C-14.43324035 15.76138246 -16.88939614 16.83230422 -20.28125 19.05859375 C-27.39144734 22.82915294 -35.09377264 21.33089158 -42.8359375 20.75 C-47.40936066 20.42129016 -51.60460878 20.60497892 -56.15625 21.12109375 C-61.19124598 21.59462313 -64.17046952 21.23317119 -68.4609375 18.55859375 C-71.52694677 16.66372107 -74.8969904 15.64225789 -78.28125 14.43359375 C-78.23484375 15.59117188 -78.1884375 16.74875 -78.140625 17.94140625 C-78.10308752 19.48044281 -78.06668949 21.01950745 -78.03125 22.55859375 C-77.98097656 23.69941406 -77.98097656 23.69941406 -77.9296875 24.86328125 C-77.83623006 30.28381274 -78.85922465 33.03940211 -82.28125 37.43359375 C-85.92270577 46.90137874 -84.84458841 57.07161239 -81.28125 66.43359375 C-79.13089116 69.78241926 -76.87546133 72.63648808 -73.28125 74.43359375 C-73.28125 75.09359375 -73.28125 75.75359375 -73.28125 76.43359375 C-72.559375 76.55734375 -71.8375 76.68109375 -71.09375 76.80859375 C-68.28125 77.43359375 -68.28125 77.43359375 -65.96875 78.43359375 C-62.40516411 79.7595792 -59.06198448 80.04911228 -55.28125 80.43359375 C-56.26946606 84.79739933 -57.72749029 88.73308206 -60.28125 92.43359375 C-64.75693283 94.92008421 -68.38551056 94.65752861 -73.28125 93.43359375 C-77.05038784 91.43816783 -78.98626421 89.88054192 -81.34375 86.30859375 C-83.46220372 83.16508178 -84.69801943 82.42893558 -88.28125 81.43359375 C-87.95125 82.42359375 -87.62125 83.41359375 -87.28125 84.43359375 C-85.79625 84.92859375 -85.79625 84.92859375 -84.28125 85.43359375 C-82.91886757 87.88588212 -81.86245377 90.41078495 -80.7578125 92.98828125 C-78.913419 96.04275303 -77.5541449 97.01669734 -74.28125 98.43359375 C-71.61271704 98.79585056 -69.14083571 99.03159806 -66.46875 99.12109375 C-65.77587891 99.15525391 -65.08300781 99.18941406 -64.36914062 99.22460938 C-62.67372151 99.30645719 -60.97751542 99.3717174 -59.28125 99.43359375 C-59.2002777 101.8717596 -59.14078028 104.30723759 -59.09375 106.74609375 C-59.06861328 107.43638672 -59.04347656 108.12667969 -59.01757812 108.83789062 C-58.97578105 111.7218891 -58.99798032 113.92448707 -60.41796875 116.4765625 C-63.33540564 117.97503637 -65.16129218 117.28140837 -68.28125 116.43359375 C-85.06369341 109.57347174 -98.316998 98.33858904 -105.99609375 81.6328125 C-112.51085203 65.41522275 -114.39278267 46.14980681 -108.28125 29.43359375 C-106.21498537 24.62523185 -103.82271913 20.00823818 -101.28125 15.43359375 C-100.8171875 14.57765625 -100.353125 13.72171875 -99.875 12.83984375 C-93.34568652 2.98186065 -82.01850322 -4.97815794 -71.28125 -9.56640625 C-70.12625 -10.12328125 -68.97125 -10.68015625 -67.78125 -11.25390625 C-44.24472846 -20.08010183 -19.98501518 -13.72258748 0 0 Z " fill="#000000" transform="translate(157.28125,60.56640625)"/>
<path d="M0 0 C7.92 0 15.84 0 24 0 C29.19512459 9.92846033 33.62469039 20.05918464 37.94604492 30.39672852 C40.88483228 37.41175177 43.95718182 44.31454557 47.23046875 51.1796875 C51.06723306 59.33871178 54.48658448 67.69807141 58 76 C54.49027725 79.50972275 49.31606949 78.41164977 44.5625 78.4375 C42.96825195 78.48680664 42.96825195 78.48680664 41.34179688 78.53710938 C33.63199468 78.59075126 33.63199468 78.59075126 30.96484375 76.09765625 C29.60831716 71.74249194 28.31074804 67.36916012 27 63 C17.1 63.33 7.2 63.66 -3 64 C-4.65 68.29 -6.3 72.58 -8 77 C-10.50497004 78.25248502 -12.20853274 78.11374406 -15.0078125 78.09765625 C-15.99394531 78.09443359 -16.98007813 78.09121094 -17.99609375 78.08789062 C-19.02863281 78.07951172 -20.06117188 78.07113281 -21.125 78.0625 C-22.68541016 78.05573242 -22.68541016 78.05573242 -24.27734375 78.04882812 C-26.85161962 78.03701952 -29.42578146 78.02055075 -32 78 C-32.98001737 75.41198194 -33.06623953 74.20564189 -32.20581055 71.53442383 C-31.77051025 70.60138428 -31.33520996 69.66834473 -30.88671875 68.70703125 C-30.38889893 67.62091553 -29.8910791 66.5347998 -29.37817383 65.41577148 C-28.82025146 64.22669189 -28.2623291 63.0376123 -27.6875 61.8125 C-26.49222233 59.21851223 -25.30532481 56.62070198 -24.1171875 54.0234375 C-23.79629654 53.32506271 -23.47540558 52.62668793 -23.14479065 51.90715027 C-18.74323431 42.30578167 -14.54089693 32.61599166 -10.3125 22.9375 C-9.13333926 20.23973624 -7.95373621 17.5421699 -6.77279663 14.84518433 C-6.06046149 13.21836837 -5.3490817 11.59113365 -4.63882446 9.96340942 C-4.16078873 8.8715181 -4.16078873 8.8715181 -3.6730957 7.75756836 C-3.25892143 6.80955605 -3.25892143 6.80955605 -2.83638 5.84239197 C-1.94151459 3.87116735 -0.96814365 1.93628729 0 0 Z M11 27 C9.83121737 29.81163781 8.66488052 32.62424608 7.5 35.4375 C7.16613281 36.23994141 6.83226562 37.04238281 6.48828125 37.86914062 C6.17246094 38.63291016 5.85664063 39.39667969 5.53125 40.18359375 C5.23798828 40.89056396 4.94472656 41.59753418 4.64257812 42.32592773 C3.94027509 43.85673784 3.94027509 43.85673784 4 45 C8.95 45 13.9 45 19 45 C17.60061654 38.70277443 15.50710309 32.93915684 13 27 C12.34 27 11.68 27 11 27 Z " fill="#000000" transform="translate(234,78)"/>
<path d="M0 0 C16.83 0 33.66 0 51 0 C51 5.94 51 11.88 51 18 C40.77 18 30.54 18 20 18 C20 20.97 20 23.94 20 27 C20.79921875 26.95359375 21.5984375 26.9071875 22.421875 26.859375 C31.82396454 26.55038614 39.77815266 27.88911222 47.9375 32.75 C53.95637978 39.31605066 56.413046 45.41856969 56.26953125 54.27734375 C55.60543839 60.98564412 53.21436107 66.29176114 48.25 70.875 C36.60107405 80.05556618 23.21343673 80.13571987 8.953125 78.69140625 C6.56702249 78.26205978 4.31720515 77.71082376 2 77 C0.62134766 76.58041016 0.62134766 76.58041016 -0.78515625 76.15234375 C-5.98959328 74.34433257 -5.98959328 74.34433257 -8 73 C-9.17191913 70.46237984 -9.27880881 68.85393116 -8.40893555 66.18969727 C-7.53042177 64.14678997 -6.569844 62.16993782 -5.5625 60.1875 C-5.22412109 59.49462891 -4.88574219 58.80175781 -4.53710938 58.08789062 C-3.70369793 56.38585318 -2.85348076 54.69206285 -2 53 C1.49541375 53.58462026 4.31226913 54.53959433 7.5 56.0625 C13.47658877 58.50869001 19.62816872 59.13573926 26 58 C28.8499546 56.09274083 28.8499546 56.09274083 31 54 C30.72382467 52.05925139 30.72382467 52.05925139 30 50 C23.67039081 45.78026054 14.94740835 46.70484683 7.5625 46.4375 C6.44939453 46.39431641 5.33628906 46.35113281 4.18945312 46.30664062 C1.45974156 46.20120112 -1.27005143 46.09907971 -4 46 C-3.75944238 41.69858229 -3.51080254 37.39772199 -3.25537109 33.09716797 C-3.16993471 31.64090962 -3.08652717 30.1845305 -3.00537109 28.72802734 C-2.88682556 26.6073795 -2.76043216 24.4873066 -2.6328125 22.3671875 C-2.55949707 21.09987793 -2.48618164 19.83256836 -2.41064453 18.52685547 C-1.84802359 12.32464529 -0.88072644 6.1650851 0 0 Z " fill="#000000" transform="translate(922,78)"/>
<path d="M0 0 C6.41229461 3.50564958 10.44247259 9.47315996 12.55078125 16.39453125 C12.94776654 19.75282981 12.92518321 23.07103851 12.87890625 26.44921875 C12.87703308 27.39137238 12.87515991 28.333526 12.87322998 29.30422974 C12.86653954 31.28260878 12.85268542 33.26097527 12.83203125 35.23925781 C12.80066584 38.28072273 12.79103565 41.32167006 12.78515625 44.36328125 C12.77599403 46.2877668 12.76562077 48.21224705 12.75390625 50.13671875 C12.74965637 51.05017059 12.74540649 51.96362244 12.74102783 52.90475464 C12.6679867 59.2773258 12.6679867 59.2773258 11.55078125 60.39453125 C10.00122566 60.49352648 8.44724452 60.52532649 6.89453125 60.52734375 C5.48494141 60.52927734 5.48494141 60.52927734 4.046875 60.53125 C3.05816406 60.52738281 2.06945312 60.52351563 1.05078125 60.51953125 C0.06207031 60.52339844 -0.92664063 60.52726562 -1.9453125 60.53125 C-2.88503906 60.52996094 -3.82476562 60.52867187 -4.79296875 60.52734375 C-5.66115234 60.52621582 -6.52933594 60.52508789 -7.42382812 60.52392578 C-9.44921875 60.39453125 -9.44921875 60.39453125 -10.44921875 59.39453125 C-10.58455632 57.01841467 -10.65973987 54.66724653 -10.6953125 52.2890625 C-10.72827541 50.81574981 -10.76148661 49.34244267 -10.79492188 47.86914062 C-10.8421691 45.54325516 -10.88654295 43.21738808 -10.92602539 40.89135742 C-10.9659921 38.64867467 -11.01750182 36.40647458 -11.0703125 34.1640625 C-11.07872665 33.47633255 -11.08714081 32.7886026 -11.09580994 32.08003235 C-11.20300838 27.84798045 -11.78160344 24.29647752 -13.44921875 20.39453125 C-16.5786434 18.82981892 -20.06004098 18.69751167 -23.44921875 19.39453125 C-25.70133327 20.88656662 -25.70133327 20.88656662 -27.44921875 23.39453125 C-27.8433496 26.18114488 -28.00730055 28.5866457 -27.98828125 31.37109375 C-28.00007416 32.13755219 -28.01186707 32.90401062 -28.02401733 33.69369507 C-28.05925759 36.13584824 -28.06844706 38.57714461 -28.07421875 41.01953125 C-28.09054722 43.46880239 -28.11253367 45.91769027 -28.14584351 48.36679077 C-28.16551572 49.88917139 -28.17480381 51.41172827 -28.17276001 52.93423462 C-28.22575492 58.17106742 -28.22575492 58.17106742 -30.44921875 60.39453125 C-32.58813477 60.63745117 -32.58813477 60.63745117 -35.203125 60.625 C-36.60788086 60.62209961 -36.60788086 60.62209961 -38.04101562 60.61914062 C-39.51151367 60.60077148 -39.51151367 60.60077148 -41.01171875 60.58203125 C-41.99591797 60.58138672 -42.98011719 60.58074219 -43.99414062 60.58007812 C-51.30904343 60.53470657 -51.30904343 60.53470657 -52.44921875 59.39453125 C-52.54313171 57.49209363 -52.56665533 55.58614666 -52.56274414 53.68139648 C-52.56266861 52.46020615 -52.56259308 51.23901581 -52.56251526 49.9808197 C-52.55740786 48.63825439 -52.55219186 47.2956895 -52.546875 45.953125 C-52.54501074 44.58691967 -52.54358688 43.22071368 -52.54258728 41.85450745 C-52.53876269 38.2525143 -52.52893292 34.65056125 -52.5178833 31.04858398 C-52.50766791 27.3754938 -52.50308939 23.70239716 -52.49804688 20.02929688 C-52.48731059 12.81769002 -52.47023489 5.60611625 -52.44921875 -1.60546875 C-49.01187812 -1.69250698 -45.57482038 -1.74587147 -42.13671875 -1.79296875 C-41.16025391 -1.81810547 -40.18378906 -1.84324219 -39.17773438 -1.86914062 C-38.23994141 -1.87880859 -37.30214844 -1.88847656 -36.3359375 -1.8984375 C-35.47186279 -1.91414795 -34.60778809 -1.9298584 -33.7175293 -1.94604492 C-30.99903339 -1.53787553 -30.14558046 -0.70953971 -28.44921875 1.39453125 C-27.84335937 1.10578125 -27.2375 0.81703125 -26.61328125 0.51953125 C-17.2079026 -3.64777498 -9.60840757 -3.84608111 0 0 Z " fill="#000000" transform="translate(346.44921875,95.60546875)"/>
<path d="M0 0 C7.46631843 6.16723372 9.34815128 13.05726427 10.5078125 22.38671875 C10.74881399 27.33060499 10.79686184 32.25695811 10.76855469 37.20581055 C10.75768109 39.47666199 10.76858693 41.74674828 10.78125 44.01757812 C10.77993088 45.46484549 10.77737363 46.91211238 10.7734375 48.359375 C10.77118164 49.66140869 10.76892578 50.96344238 10.76660156 52.30493164 C10.5078125 55.38671875 10.5078125 55.38671875 8.5078125 57.38671875 C6.44482422 57.61376953 6.44482422 57.61376953 3.9375 57.58203125 C3.04160156 57.57558594 2.14570312 57.56914062 1.22265625 57.5625 C0.28550781 57.54574219 -0.65164063 57.52898437 -1.6171875 57.51171875 C-2.56207031 57.50269531 -3.50695312 57.49367187 -4.48046875 57.484375 C-6.81796042 57.46076397 -9.15494873 57.42783391 -11.4921875 57.38671875 C-11.9871875 55.40671875 -11.9871875 55.40671875 -12.4921875 53.38671875 C-13.3996875 54.02609375 -14.3071875 54.66546875 -15.2421875 55.32421875 C-22.12491636 59.23929327 -30.93925535 59.21262508 -38.45703125 57.1796875 C-42.94426769 55.43130171 -46.25208864 52.83350075 -49.3671875 49.19921875 C-51.99756582 42.62327294 -52.20221744 35.96822004 -49.4921875 29.38671875 C-46.44655695 24.14823421 -42.08012719 22.19951137 -36.4921875 20.38671875 C-32.63495039 19.81441538 -28.82508086 19.69343526 -24.9296875 19.63671875 C-23.92099609 19.60707031 -22.91230469 19.57742187 -21.87304688 19.546875 C-19.4126838 19.47691207 -16.95322739 19.42385686 -14.4921875 19.38671875 C-17.68501209 15.6501381 -17.68501209 15.6501381 -22.0703125 13.7578125 C-28.01927569 13.90566685 -32.31888066 14.73245353 -37.51953125 17.70703125 C-39.4921875 18.38671875 -39.4921875 18.38671875 -41.57421875 17.83984375 C-44.14042485 15.89558984 -44.96495183 13.95251445 -46.2421875 11.01171875 C-46.88414062 9.57699219 -46.88414062 9.57699219 -47.5390625 8.11328125 C-48.4921875 5.38671875 -48.4921875 5.38671875 -48.4921875 1.38671875 C-36.08101185 -8.48961178 -12.81696509 -8.29687552 0 0 Z M-28.4921875 35.38671875 C-28.9921875 37.88671875 -28.9921875 37.88671875 -28.4921875 40.38671875 C-24.95089566 42.74757997 -23.66468532 42.95941453 -19.4921875 42.38671875 C-16.97988778 40.95681574 -15.5409571 39.5330488 -13.4921875 37.38671875 C-13.4921875 36.06671875 -13.4921875 34.74671875 -13.4921875 33.38671875 C-15.42938128 33.33265753 -17.36700671 33.2938985 -19.3046875 33.26171875 C-20.38363281 33.23851562 -21.46257813 33.2153125 -22.57421875 33.19140625 C-25.68621618 33.15648158 -25.68621618 33.15648158 -28.4921875 35.38671875 Z " fill="#000000" transform="translate(592.4921875,98.61328125)"/>
<path d="M0 0 C5.90745404 4.79508153 8.34994792 9.92749034 9.51171875 17.421875 C9.65385893 20.4170861 9.65189526 23.4081101 9.64453125 26.40625 C9.64548798 27.26244934 9.6464447 28.11864868 9.64743042 29.00079346 C9.64810883 30.80277582 9.64627824 32.60476066 9.64208984 34.40673828 C9.63671042 37.1761618 9.64205974 39.94542508 9.6484375 42.71484375 C9.64777717 44.46614619 9.64649696 46.21744854 9.64453125 47.96875 C9.64655548 48.80098083 9.64857971 49.63321167 9.65066528 50.49066162 C9.62668693 56.30690682 9.62668693 56.30690682 8.51171875 57.421875 C7.02300015 57.50856932 5.53027375 57.52890994 4.0390625 57.51953125 C3.13994141 57.51630859 2.24082031 57.51308594 1.31445312 57.50976562 C-0.10383789 57.49719727 -0.10383789 57.49719727 -1.55078125 57.484375 C-2.50017578 57.47986328 -3.44957031 57.47535156 -4.42773438 57.47070312 C-6.7813119 57.4588761 -9.13476602 57.44239525 -11.48828125 57.421875 C-11.98328125 55.441875 -11.98328125 55.441875 -12.48828125 53.421875 C-13.39578125 54.06125 -14.30328125 54.700625 -15.23828125 55.359375 C-22.2938098 59.36463464 -31.42443325 59.19034194 -39.16015625 57.34375 C-44.4557842 55.24682349 -48.32708894 51.59911057 -50.98828125 46.609375 C-52.05889648 39.78420292 -52.73045042 33.2548576 -48.48828125 27.421875 C-43.26750916 22.79931638 -39.2597569 20.28501602 -32.1640625 20.32421875 C-31.13603516 20.32744141 -30.10800781 20.33066406 -29.04882812 20.33398438 C-27.44104492 20.34655273 -27.44104492 20.34655273 -25.80078125 20.359375 C-24.71732422 20.36388672 -23.63386719 20.36839844 -22.51757812 20.37304688 C-19.8410904 20.38483757 -17.16471348 20.40129437 -14.48828125 20.421875 C-16.35394613 16.79393502 -16.35394613 16.79393502 -19.48828125 14.421875 C-26.29762365 13.71184101 -31.55085641 14.33735597 -37.61328125 17.546875 C-39.48828125 18.421875 -39.48828125 18.421875 -42.48828125 18.421875 C-43.7166345 16.18087931 -44.9205762 13.9317372 -46.11328125 11.671875 C-46.46390625 11.03765625 -46.81453125 10.4034375 -47.17578125 9.75 C-49.62439964 5.04865269 -49.62439964 5.04865269 -48.984375 2.1015625 C-38.39898955 -9.78281281 -11.9050489 -7.55045488 0 0 Z M-28.48828125 34.421875 C-28.65509234 37.33839674 -28.65509234 37.33839674 -28.48828125 40.421875 C-26.56381829 42.76172263 -26.56381829 42.76172263 -23.17578125 42.796875 C-18.8939694 42.36143651 -17.3775276 41.56605485 -14.48828125 38.421875 C-13.83280898 35.83872349 -13.83280898 35.83872349 -13.48828125 33.421875 C-15.42570466 33.39484119 -17.36323604 33.37546375 -19.30078125 33.359375 C-20.91919922 33.34197266 -20.91919922 33.34197266 -22.5703125 33.32421875 C-25.55340294 33.28562734 -25.55340294 33.28562734 -28.48828125 34.421875 Z " fill="#000000" transform="translate(417.48828125,98.578125)"/>
<path d="M0 0 C8.45767334 -0.02312659 16.91533356 -0.0409167 25.37303066 -0.05181217 C29.29988658 -0.05704031 33.22672094 -0.06413669 37.15356445 -0.07543945 C40.94014257 -0.0862708 44.7266999 -0.09227736 48.51329231 -0.09487724 C49.96104319 -0.09673105 51.40879288 -0.10035081 52.85653496 -0.10573006 C54.87757135 -0.11294367 56.89862848 -0.11340808 58.91967773 -0.11352539 C60.64842384 -0.11685631 60.64842384 -0.11685631 62.41209412 -0.12025452 C65 0 65 0 66 1 C68.15572598 12.47008917 63.26704169 21.4105318 58.58056641 31.52148438 C55.65187681 37.96695386 52.90789777 44.49283402 50.134552 51.00628662 C48.51499616 54.80625293 46.88611485 58.602213 45.2578125 62.3984375 C44.69673054 63.70749947 44.13569318 65.01658056 43.57470703 66.32568359 C43.05505371 67.53820801 42.53540039 68.75073242 42 70 C41.73636658 70.65768372 41.47273315 71.31536743 41.20111084 71.99298096 C39.20996544 76.89501728 39.20996544 76.89501728 37 78 C35.18658158 78.08471364 33.37005839 78.10721083 31.5546875 78.09765625 C29.94013672 78.09282227 29.94013672 78.09282227 28.29296875 78.08789062 C27.16503906 78.07951172 26.03710938 78.07113281 24.875 78.0625 C23.73933594 78.05798828 22.60367188 78.05347656 21.43359375 78.04882812 C18.62234362 78.03701615 15.8111977 78.02054507 13 78 C13.50541763 71.54484147 15.78351581 66.36088175 18.4375 60.5 C19.34267577 58.46103864 20.24761649 56.42197291 21.15234375 54.3828125 C21.6201123 53.33641602 22.08788086 52.29001953 22.56982422 51.21191406 C24.91382833 45.94770818 27.20545358 40.66090164 29.5 35.375 C30.13119751 33.92770508 30.13119751 33.92770508 30.77514648 32.45117188 C31.16903564 31.54689453 31.5629248 30.64261719 31.96875 29.7109375 C32.31357422 28.91993652 32.65839844 28.12893555 33.01367188 27.31396484 C34.04625883 24.89147496 35.02198702 22.44503245 36 20 C31.05 19.67 26.1 19.34 21 19 C21.04125 20.60875 21.0825 22.2175 21.125 23.875 C21.1953125 26.6171875 21.1953125 26.6171875 21 29 C19 31 19 31 17.13647461 31.24291992 C16.03057983 31.23675659 16.03057983 31.23675659 14.90234375 31.23046875 C14.10119141 31.22853516 13.30003906 31.22660156 12.47460938 31.22460938 C11.21874023 31.20624023 11.21874023 31.20624023 9.9375 31.1875 C9.09638672 31.18685547 8.25527344 31.18621094 7.38867188 31.18554688 C1.14023184 31.14023184 1.14023184 31.14023184 0 30 C-0.08783542 27.78144736 -0.10694609 25.56011504 -0.09765625 23.33984375 C-0.0962413 22.67537735 -0.09482635 22.01091095 -0.09336853 21.3263092 C-0.08775518 19.19666101 -0.07520054 17.06711661 -0.0625 14.9375 C-0.05748671 13.49674631 -0.05292351 12.05599097 -0.04882812 10.61523438 C-0.03778145 7.07678898 -0.02050792 3.53840461 0 0 Z " fill="#000000" transform="translate(848,78)"/>
<path d="M0 0 C-0.48356476 5.68188598 -1.7615578 11.2091617 -5 16 C-6.69921875 16.9453125 -6.69921875 16.9453125 -9 17 C-10.68984091 16.25237342 -12.37839044 15.50115467 -14.05126953 14.71630859 C-17.46384888 13.46192275 -20.84744183 13.68440094 -24.4375 13.8125 C-25.53481445 13.83280273 -25.53481445 13.83280273 -26.65429688 13.85351562 C-28.43652422 13.88846126 -30.21836573 13.94225195 -32 14 C-29.69822644 16.70014863 -28.09579092 17.45014849 -24.61328125 17.9921875 C-23.75669922 18.14042969 -22.90011719 18.28867188 -22.01757812 18.44140625 C-20.23444977 18.72722177 -18.45060018 19.00857857 -16.66601562 19.28515625 C-10.07560995 20.43687763 -3.65996668 22.2957841 0.41479492 27.97021484 C2.87359559 32.28597701 3.71137431 36.0203798 3 41 C0.98225562 47.12486904 -2.57381315 51.53582421 -8 55 C-13.03710055 57.52464846 -17.40986983 58.57022576 -23.0625 58.8125 C-23.79984375 58.84819092 -24.5371875 58.88388184 -25.296875 58.9206543 C-35.80411959 59.28800095 -45.67411927 58.08235828 -55 53 C-54.57664615 46.50857435 -52.08900201 41.66507011 -49 36 C-45.71046044 36.59547025 -42.70401494 37.43547471 -39.5625 38.5625 C-33.1070491 40.57433492 -26.69409718 40.26043318 -20 40 C-20.33 39.34 -20.66 38.68 -21 38 C-25.63817527 36.59979615 -30.20947473 35.81716715 -35 35.125 C-41.65731115 34.04066523 -46.73381211 32.38240266 -51.4375 27.4375 C-54.73889182 22.28732876 -54.59008995 16.934144 -54 11 C-52.32024547 5.83595465 -48.70511127 1.65463477 -44 -1 C-30.15350392 -6.86845956 -13.6543232 -6.8271616 0 0 Z " fill="#000000" transform="translate(756,98)"/>
<path d="M0 0 C-0.42335385 6.49142565 -2.91099799 11.33492989 -6 17 C-8.6201766 16.55082687 -10.8691809 16.06017233 -13.29296875 14.9453125 C-16.96611762 13.66262559 -20.47600874 13.78585901 -24.3125 13.875 C-25.42334961 13.88853516 -25.42334961 13.88853516 -26.55664062 13.90234375 C-28.37123467 13.92575787 -30.18566071 13.96162385 -32 14 C-29.69822644 16.70014863 -28.09579092 17.45014849 -24.61328125 17.9921875 C-23.75669922 18.14042969 -22.90011719 18.28867188 -22.01757812 18.44140625 C-20.23444977 18.72722177 -18.45060018 19.00857857 -16.66601562 19.28515625 C-10.07590985 20.43682522 -3.65934834 22.29554704 0.41455078 27.97045898 C2.87811975 32.29306392 3.63553287 36.00652743 3 41 C1.159946 47.44018899 -2.48082561 51.25881467 -8 55 C-13.00723698 57.53660029 -17.50283376 58.57421024 -23.0625 58.8125 C-23.79984375 58.84819092 -24.5371875 58.88388184 -25.296875 58.9206543 C-35.80411959 59.28800095 -45.67411927 58.08235828 -55 53 C-53.89061647 46.69403048 -52.06802099 41.62470514 -49 36 C-45.71046044 36.59547025 -42.70401494 37.43547471 -39.5625 38.5625 C-33.1070491 40.57433492 -26.69409718 40.26043318 -20 40 C-21.9137092 37.39424836 -22.97699284 37.00421101 -26.22265625 36.41015625 C-27.48980469 36.29542969 -28.75695312 36.18070313 -30.0625 36.0625 C-37.69840591 35.21999983 -44.90082739 34.09917261 -50.5 28.5 C-54.09541544 22.50764093 -54.79593169 18.01414801 -54 11 C-52.30758834 5.83622123 -48.71040098 1.65761923 -44 -1 C-30.15350392 -6.86845956 -13.6543232 -6.8271616 0 0 Z " fill="#000000" transform="translate(663,98)"/>
<path d="M0 0 C1.04293213 0.23529419 1.04293213 0.23529419 2.10693359 0.4753418 C4.91376986 1.20160807 6.92207796 1.83511778 8.93359375 3.97265625 C9.52254042 7.51240789 8.20023893 9.73637236 6.6875 12.9375 C6.15898437 14.09636719 5.63046875 15.25523438 5.0859375 16.44921875 C3.3125 19.25 3.3125 19.25 1.28125 20.234375 C-0.6875 20.25 -0.6875 20.25 -3.5625 18.8125 C-9.16319411 16.10447208 -15.62967365 17.02314659 -21.6875 17.25 C-22.0175 18.24 -22.3475 19.23 -22.6875 20.25 C-21.36298828 20.41435547 -21.36298828 20.41435547 -20.01171875 20.58203125 C2.75194871 23.58947604 2.75194871 23.58947604 9.3125 31.25 C12.14168006 35.67828184 11.9567358 41.15974183 11.3125 46.25 C9.0568376 52.68778243 4.37312587 56.30267294 -1.4375 59.4375 C-12.71707379 64.19372028 -28.09264252 63.11495249 -39.453125 59.328125 C-43.74966828 57.57167649 -43.74966828 57.57167649 -45.6875 56.25 C-47.05170006 52.15739982 -45.4539515 49.77987341 -43.75 46.0625 C-43.45931641 45.40830078 -43.16863281 44.75410156 -42.86914062 44.08007812 C-42.15054657 42.46618656 -41.4201412 40.85756345 -40.6875 39.25 C-36.71991083 39.86123795 -33.39502028 40.72896604 -29.6875 42.25 C-25.54604821 43.30378578 -21.63778088 43.35233907 -17.375 43.3125 C-16.12074219 43.30347656 -14.86648438 43.29445312 -13.57421875 43.28515625 C-12.14529297 43.26775391 -12.14529297 43.26775391 -10.6875 43.25 C-11.0175 42.59 -11.3475 41.93 -11.6875 41.25 C-13.68149174 40.67550315 -13.68149174 40.67550315 -16.09765625 40.35546875 C-17.00580078 40.20400391 -17.91394531 40.05253906 -18.84960938 39.89648438 C-20.75473188 39.59500034 -22.66097625 39.30050634 -24.56835938 39.01367188 C-32.25085683 37.71256022 -37.50774104 35.28362107 -43.15234375 29.8984375 C-46.25037843 24.55373644 -45.41997523 18.19332972 -44.6875 12.25 C-42.19043114 5.47697694 -36.33812927 2.94175503 -30.125 0.0625 C-20.32030463 -3.20573179 -9.88897087 -2.34435847 0 0 Z " fill="#000000" transform="translate(478.6875,94.75)"/>
<path d="M0 0 C7.92 0 15.84 0 24 0 C24 4.95 24 9.9 24 15 C27.1865625 14.9690625 27.1865625 14.9690625 30.4375 14.9375 C32.62499611 14.91626217 34.81360547 14.92741054 37 15 C38.98119355 16.98119355 38.18500411 20.73445064 38.1875 23.4375 C38.19974609 24.13166016 38.21199219 24.82582031 38.22460938 25.54101562 C38.22989842 27.36220901 38.12169207 29.1828692 38 31 C36 33 36 33 33.1796875 33.1953125 C32.08914063 33.17210937 30.99859375 33.14890625 29.875 33.125 C28.77929688 33.10695312 27.68359375 33.08890625 26.5546875 33.0703125 C25.71164062 33.04710937 24.86859375 33.02390625 24 33 C24.13854088 36.29201643 24.28707024 39.58350709 24.4375 42.875 C24.47681641 43.81214844 24.51613281 44.74929687 24.55664062 45.71484375 C24.59853516 46.61074219 24.64042969 47.50664062 24.68359375 48.4296875 C24.73858032 49.67081299 24.73858032 49.67081299 24.79467773 50.93701172 C24.88238327 53.06179429 24.88238327 53.06179429 26 55 C29.3 55 32.6 55 36 55 C38.60780809 60.4679847 40.48643537 64.96561558 41 71 C34.03112486 75.85075549 24.9021825 75.64405694 16.6875 74.5625 C10.80174415 73.07649234 6.64938148 69.7888508 3 65 C-1.71520828 55.41941758 -0.2772849 43.39304886 0 33 C-1.7015625 33.0309375 -1.7015625 33.0309375 -3.4375 33.0625 C-7 33 -7 33 -8 32 C-8.07325168 29.13732433 -8.09238205 26.299281 -8.0625 23.4375 C-8.05798828 22.63119141 -8.05347656 21.82488281 -8.04882812 20.99414062 C-8.03700518 18.99606244 -8.01906914 16.99802217 -8 15 C-5.36 15 -2.72 15 0 15 C0 10.05 0 5.1 0 0 Z " fill="#000000" transform="translate(498,82)"/>
<path d="M0 0 C5.39352589 -0.02290785 10.78688421 -0.04283526 16.18041992 -0.05493164 C18.01668875 -0.05997231 19.85295354 -0.06680477 21.68920898 -0.07543945 C24.32276401 -0.08751672 26.95626616 -0.09323081 29.58984375 -0.09765625 C30.41588608 -0.10281754 31.24192841 -0.10797882 32.09300232 -0.11329651 C34.06236368 -0.11349205 36.03161614 -0.06204152 38 0 C39.67335996 1.67335996 39.11962895 3.71387909 39.12442017 5.94747925 C39.11902725 7.00807053 39.11902725 7.00807053 39.11352539 8.09008789 C39.11367142 8.83150528 39.11381744 9.57292267 39.1139679 10.33680725 C39.11326865 12.79878621 39.10547574 15.26069043 39.09765625 17.72265625 C39.09579211 19.42516539 39.09436819 21.12767507 39.09336853 22.83018494 C39.08954302 27.31993073 39.07971247 31.80964438 39.06866455 36.29937744 C39.05845113 40.87731491 39.05387106 45.45525756 39.04882812 50.03320312 C39.03809022 59.02214957 39.02101341 68.01107212 39 77 C36.51004335 78.24497833 34.81005089 78.12934372 32.02734375 78.1328125 C30.55491211 78.13474609 30.55491211 78.13474609 29.05273438 78.13671875 C28.02470703 78.13285156 26.99667969 78.12898438 25.9375 78.125 C24.90560547 78.12886719 23.87371094 78.13273437 22.81054688 78.13671875 C21.83021484 78.13542969 20.84988281 78.13414062 19.83984375 78.1328125 C18.93613037 78.13168457 18.03241699 78.13055664 17.10131836 78.12939453 C15 78 15 78 14 77 C13.90618698 75.15881971 13.88256046 73.31402359 13.88647461 71.47045898 C13.88655014 70.28931015 13.88662567 69.10816132 13.88670349 67.89122009 C13.89186478 66.6058284 13.89702606 65.32043671 13.90234375 63.99609375 C13.9037587 62.68794205 13.90517365 61.37979034 13.90663147 60.03199768 C13.9104559 56.54837141 13.92028554 53.06478661 13.93133545 49.58117676 C13.94155118 46.02873292 13.94612944 42.47628241 13.95117188 38.92382812 C13.96190788 31.94919996 13.97950407 24.97460624 14 18 C9.38 18 4.76 18 0 18 C0 12.06 0 6.12 0 0 Z " fill="#000000" transform="translate(758,78)"/>
<path d="M0 0 C5.39352589 -0.02290785 10.78688421 -0.04283526 16.18041992 -0.05493164 C18.01668875 -0.05997231 19.85295354 -0.06680477 21.68920898 -0.07543945 C24.32276401 -0.08751672 26.95626616 -0.09323081 29.58984375 -0.09765625 C30.41588608 -0.10281754 31.24192841 -0.10797882 32.09300232 -0.11329651 C34.06236368 -0.11349205 36.03161614 -0.06204152 38 0 C39.65611983 1.65611983 39.13164288 3.64855341 39.14663696 5.86180115 C39.14618378 6.55636917 39.14573059 7.25093719 39.14526367 7.96655273 C39.14862228 8.69500397 39.1519809 9.4234552 39.15544128 10.17398071 C39.1649786 12.59386884 39.16689578 15.01368798 39.16796875 17.43359375 C39.17117941 19.1088921 39.17454333 20.78419017 39.17805481 22.45948792 C39.18405305 25.97600963 39.185894 29.49250673 39.18530273 33.0090332 C39.18520107 37.52315104 39.19885411 42.03711172 39.21607494 46.55119228 C39.2271737 50.01264679 39.2292226 53.47406304 39.22869301 56.93553352 C39.22987631 58.60016484 39.23431755 60.26479704 39.24202538 61.92941093 C39.2517826 64.25440464 39.24896434 66.57905391 39.24291992 68.90405273 C39.24853943 69.59659653 39.25415894 70.28914032 39.25994873 71.00267029 C39.22831581 75.77168419 39.22831581 75.77168419 37 78 C34.76928711 78.24291992 34.76928711 78.24291992 32.02734375 78.23046875 C31.04572266 78.22853516 30.06410156 78.22660156 29.05273438 78.22460938 C28.02470703 78.21236328 26.99667969 78.20011719 25.9375 78.1875 C24.90560547 78.18685547 23.87371094 78.18621094 22.81054688 78.18554688 C15.14015997 78.14015997 15.14015997 78.14015997 14 77 C13.90618698 75.15881971 13.88256046 73.31402359 13.88647461 71.47045898 C13.88655014 70.28931015 13.88662567 69.10816132 13.88670349 67.89122009 C13.89186478 66.6058284 13.89702606 65.32043671 13.90234375 63.99609375 C13.9037587 62.68794205 13.90517365 61.37979034 13.90663147 60.03199768 C13.9104559 56.54837141 13.92028554 53.06478661 13.93133545 49.58117676 C13.94155118 46.02873292 13.94612944 42.47628241 13.95117188 38.92382812 C13.96190788 31.94919996 13.97950407 24.97460624 14 18 C9.38 18 4.76 18 0 18 C0 12.06 0 6.12 0 0 Z " fill="#000000" transform="translate(802,78)"/>
<path d="M0 0 C7.26 0 14.52 0 22 0 C23 1 23 1 23.12025452 3.39808655 C23.1169236 4.99359596 23.1169236 4.99359596 23.11352539 6.62133789 C23.11344986 7.82250748 23.11337433 9.02367706 23.11329651 10.26124573 C23.10813522 11.5685112 23.10297394 12.87577667 23.09765625 14.22265625 C23.09579198 15.56644132 23.09436812 16.91022707 23.09336853 18.25401306 C23.08954402 21.79682277 23.07971432 25.3395917 23.06866455 28.88238525 C23.05844899 32.49515227 23.0538706 36.10792584 23.04882812 39.72070312 C23.03809198 46.8138188 23.02101636 53.90690674 23 61 C16.13624657 64.43187671 7.67390962 62 0 62 C0 41.54 0 21.08 0 0 Z " fill="#000000" transform="translate(672,94)"/>
<path d="M0 0 C3.04187788 3.09954381 4.35481812 5.90396116 4.6484375 10.2421875 C4.28513796 15.19319985 2.63661302 17.40354192 -1.0390625 20.6796875 C-6.00971906 23.27798525 -10.7053586 22.87262312 -16.0390625 21.6796875 C-20.20028214 19.87046157 -22.2364217 17.8542241 -24.0390625 13.6796875 C-24.57189488 9.49314738 -24.31090399 7.24511779 -22.4765625 3.4296875 C-16.84396252 -2.92504069 -7.42995777 -4.81096882 0 0 Z " fill="#000000" transform="translate(693.0390625,68.3203125)"/>
</svg>
